<?xml version="1.0" encoding="UTF-8" standalone="no"?><!DOCTYPE svg PUBLIC "-//W3C//DTD SVG 1.1//EN" "http://www.w3.org/Graphics/SVG/1.1/DTD/svg11.dtd"><svg width="100%" height="100%" viewBox="0 0 3000 3000" version="1.1" xmlns="http://www.w3.org/2000/svg" xmlns:xlink="http://www.w3.org/1999/xlink" xml:space="preserve" xmlns:serif="http://www.serif.com/" style="fill-rule:evenodd;clip-rule:evenodd;stroke-linecap:round;stroke-linejoin:round;stroke-miterlimit:1.5;"><path d="M502.454,1215.43c0,-0 -12.794,-599.008 535.461,-726.231c548.255,-127.223 795.159,330.722 795.159,330.722c0,0 351.016,-173.37 541.152,60.336c190.136,233.706 87.144,452.467 87.144,452.467c0,0 487.623,91.052 466.896,591.121c-20.549,495.78 -516.174,540.587 -516.174,540.587l-1757.7,-1.727c-0,-0 -549.849,-50.771 -576.117,-592.52c-26.269,-541.749 424.182,-654.755 424.182,-654.755Zm399.366,112.951l910.676,-1.381c-0,0 1.347,625.268 1.785,828.499c0.036,16.677 -6.574,32.681 -18.368,44.472c-11.794,11.791 -27.8,18.396 -44.478,18.355c-167.072,-0.409 -620.104,-1.52 -786.631,-1.928c-34.551,-0.084 -62.52,-28.107 -62.539,-62.658c-0.109,-202.174 -0.445,-825.359 -0.445,-825.359Zm-48.873,-74.153c-12.585,-0.028 -22.818,-10.153 -22.978,-22.738c-0.35,-27.44 -0.935,-73.381 -1.287,-101.036c-0.078,-6.132 2.292,-12.042 6.586,-16.42c4.294,-4.378 10.157,-6.863 16.29,-6.904c63.018,-0.418 236.143,-1.568 286.174,-1.9c8.447,-0.056 16.186,-4.732 20.164,-12.184c7.289,-13.652 19.084,-35.743 26.408,-49.461c4.023,-7.535 11.886,-12.225 20.428,-12.183c54.34,0.265 252.041,1.231 302.813,1.479c7.493,0.037 14.499,3.716 18.783,9.863c9.677,13.887 27.277,39.142 36.991,53.08c4.32,6.2 11.408,9.886 18.964,9.863c47.51,-0.143 222.18,-0.671 285.893,-0.864c6.181,-0.018 12.11,2.449 16.454,6.846c4.344,4.398 6.738,10.357 6.643,16.537c-0.439,28.751 -1.179,77.144 -1.614,105.559c-0.193,12.6 -10.476,22.706 -23.078,22.678c-139.153,-0.304 -874.599,-1.911 -1013.63,-2.215Z" style="fill:none;stroke:#fff;stroke-width:8.33px;"/><g id="Layer1"><g id="Layer2"><path d="M1121.1,2065.15c-7.155,0.334 -14.138,-2.262 -19.336,-7.189c-5.199,-4.928 -8.164,-11.762 -8.212,-18.924c-0.667,-99.207 -2.949,-438.943 -3.599,-535.62c-0.096,-14.353 11.326,-26.137 25.675,-26.487c7.453,-0.183 15.599,-0.382 23.107,-0.565c7.059,-0.173 13.891,2.499 18.961,7.413c5.07,4.914 7.953,11.66 8,18.721c0.662,98.409 2.953,439.207 3.598,535.103c0.095,14.125 -10.978,25.806 -25.088,26.466c-7.418,0.347 -15.564,0.729 -23.106,1.082Z" style="fill:none;"/><path d="M1349.1,2065.15c-7.155,0.334 -14.138,-2.262 -19.336,-7.189c-5.199,-4.928 -8.164,-11.762 -8.212,-18.924c-0.667,-99.207 -2.949,-438.943 -3.599,-535.62c-0.096,-14.353 11.326,-26.137 25.675,-26.487c7.453,-0.183 15.599,-0.382 23.107,-0.565c7.059,-0.173 13.891,2.499 18.961,7.413c5.07,4.914 7.953,11.66 8,18.721c0.662,98.409 2.953,439.207 3.598,535.103c0.095,14.125 -10.978,25.806 -25.088,26.466c-7.418,0.347 -15.564,0.729 -23.106,1.082Z" style="fill:none;"/><path d="M1577.2,2065.15c-7.155,0.334 -14.138,-2.262 -19.336,-7.189c-5.199,-4.928 -8.164,-11.762 -8.212,-18.924c-0.667,-99.207 -2.949,-438.943 -3.599,-535.62c-0.096,-14.353 11.326,-26.137 25.675,-26.487c7.453,-0.183 15.599,-0.382 23.107,-0.565c7.059,-0.173 13.891,2.499 18.961,7.413c5.07,4.914 7.953,11.66 8,18.721c0.662,98.409 2.953,439.207 3.598,535.103c0.095,14.125 -10.978,25.806 -25.088,26.466c-7.418,0.347 -15.564,0.729 -23.106,1.082Z" style="fill:none;"/></g></g></svg>