<?xml version="1.0" encoding="iso-8859-1"?>
<!-- Generator: Adobe Illustrator 19.0.0, SVG Export Plug-In . SVG Version: 6.00 Build 0)  -->
<svg version="1.1" id="Capa_1" xmlns="http://www.w3.org/2000/svg" xmlns:xlink="http://www.w3.org/1999/xlink" x="0px" y="0px"
	 viewBox="0 0 511.996 511.996" style="enable-background:new 0 0 511.996 511.996;" xml:space="preserve">
<path style="fill:#CFD8DC;" d="M426.68,0.005H192.013c-5.891,0-10.667,4.776-10.667,10.667v117.333H64.013
	c-5.891,0-10.667,4.776-10.667,10.667v320c0,5.891,4.776,10.667,10.667,10.667H426.68c5.891,0,10.667-4.776,10.667-10.667v-448
	C437.347,4.78,432.571,0.005,426.68,0.005z"/>
<path style="fill:#B0BEC5;" d="M196.088,0.815c-3.985-1.654-8.574-0.745-11.627,2.304l-128,128
	c-4.171,4.16-4.179,10.914-0.019,15.085c2.006,2.011,4.731,3.139,7.571,3.134h128c5.891,0,10.667-4.776,10.667-10.667v-128
	C202.679,6.355,200.077,2.464,196.088,0.815z"/>
<g>
	<path style="fill:#455A64;" d="M234.68,320.005c-5.891,0-10.667-4.776-10.667-10.667v-92.779l-23.125,34.688
		c-3.676,4.901-10.629,5.895-15.531,2.219c-0.841-0.631-1.588-1.378-2.219-2.219l-23.125-34.688v92.779
		c0,5.891-4.776,10.667-10.667,10.667s-10.667-4.776-10.667-10.667v-128c0.005-5.891,4.784-10.663,10.675-10.658
		c3.563,0.003,6.89,1.785,8.866,4.749l33.792,50.709l33.792-50.688c3.268-4.901,9.891-6.225,14.792-2.957
		c2.958,1.973,4.739,5.29,4.749,8.845v128C245.347,315.229,240.571,320.005,234.68,320.005z"/>
	<path style="fill:#455A64;" d="M277.347,320.005c-5.891,0-10.667-4.776-10.667-10.667v-128c0-5.891,4.776-10.667,10.667-10.667h32
		c23.564,0,42.667,19.103,42.667,42.667s-19.103,42.667-42.667,42.667h-21.333v53.333
		C288.013,315.229,283.238,320.005,277.347,320.005z M288.013,234.671h21.333c11.782,0,21.333-9.551,21.333-21.333
		c0-11.782-9.551-21.333-21.333-21.333h-21.333V234.671z"/>
</g>
<path style="fill:#F44336;" d="M454.136,417.946l-106.667-74.667c-4.824-3.381-11.476-2.212-14.857,2.612
	c-1.256,1.792-1.93,3.926-1.932,6.114v149.333c0.005,5.891,4.785,10.663,10.676,10.658c2.188-0.002,4.322-0.676,6.114-1.932
	l106.667-74.667c4.819-3.389,5.978-10.042,2.59-14.861C456.018,419.53,455.142,418.653,454.136,417.946z"/>
<g>
	<path style="fill:#455A64;" d="M426.68,277.338h-64c-5.891,0-10.667-4.776-10.666-10.667c0-1.659,0.387-3.295,1.13-4.778
		l42.667-85.333c2.633-5.272,9.042-7.412,14.315-4.779c5.273,2.633,7.412,9.042,4.779,14.315l0,0l-34.965,69.909h46.741
		c5.891,0,10.667,4.776,10.667,10.667C437.347,272.562,432.571,277.338,426.68,277.338z"/>
	<path style="fill:#455A64;" d="M426.68,320.005c-5.891,0-10.667-4.776-10.667-10.667v-64c0-5.891,4.776-10.667,10.667-10.667
		c5.891,0,10.667,4.776,10.667,10.667v64C437.347,315.229,432.571,320.005,426.68,320.005z"/>
</g>
<g>
</g>
<g>
</g>
<g>
</g>
<g>
</g>
<g>
</g>
<g>
</g>
<g>
</g>
<g>
</g>
<g>
</g>
<g>
</g>
<g>
</g>
<g>
</g>
<g>
</g>
<g>
</g>
<g>
</g>
</svg>
