<?xml version="1.0" encoding="iso-8859-1"?>
<!-- Generator: Adobe Illustrator 19.0.0, SVG Export Plug-In . SVG Version: 6.00 Build 0)  -->
<svg version="1.1" id="Capa_1" xmlns="http://www.w3.org/2000/svg" xmlns:xlink="http://www.w3.org/1999/xlink" x="0px" y="0px"
	 viewBox="0 0 512.019 512.019" style="enable-background:new 0 0 512.019 512.019;" xml:space="preserve">
<path style="fill:#CFD8DC;" d="M501.352,64.012H138.686c-5.891,0-10.667,4.776-10.667,10.667v117.333H10.686
	c-5.891,0-10.667,4.776-10.667,10.667v234.667c0,5.891,4.776,10.667,10.667,10.667h490.667c5.891,0,10.667-4.776,10.667-10.667
	V74.679C512.019,68.788,507.243,64.012,501.352,64.012z"/>
<path style="fill:#FAFAFA;" d="M458.686,106.679h-320c-2.831-0.005-5.548,1.115-7.552,3.115L45.8,195.127
	c-1.999,2.004-3.12,4.721-3.115,7.552v149.333c0.001,4.316,2.603,8.207,6.592,9.856c1.291,0.538,2.676,0.813,4.075,0.811
	c2.831,0.005,5.548-1.115,7.552-3.115l140.907-140.8l77.867,97.365c3.281,4.109,9.068,5.214,13.632,2.603l68.011-38.869
	l90.261,80.235c4.394,3.924,11.137,3.543,15.061-0.851c1.775-1.988,2.742-4.569,2.71-7.234V117.345
	C469.352,111.454,464.577,106.679,458.686,106.679z"/>
<circle style="fill:#FFC107;" cx="362.686" cy="192.012" r="42.667"/>
<path style="fill:#B0BEC5;" d="M142.76,64.823c-3.985-1.654-8.574-0.745-11.627,2.304l-128,128
	c-4.171,4.16-4.179,10.914-0.019,15.085c2.006,2.011,4.731,3.139,7.571,3.134h128c5.891,0,10.667-4.776,10.667-10.667v-128
	C149.352,70.362,146.75,66.471,142.76,64.823z"/>
<path style="fill:#4CAF50;" d="M465.768,344.033l-96-85.333c-3.418-3.043-8.397-3.567-12.373-1.301l-66.752,38.144l-79.616-99.52
	c-3.681-4.599-10.394-5.343-14.993-1.662c-0.307,0.246-0.601,0.509-0.879,0.787L45.822,344.481c-2.002,1.996-3.13,4.704-3.136,7.531
	v42.667c0,5.891,4.776,10.667,10.667,10.667h405.333c5.891,0,10.667-4.776,10.667-10.667v-42.667
	C469.353,348.962,468.049,346.058,465.768,344.033z"/>
<g>
</g>
<g>
</g>
<g>
</g>
<g>
</g>
<g>
</g>
<g>
</g>
<g>
</g>
<g>
</g>
<g>
</g>
<g>
</g>
<g>
</g>
<g>
</g>
<g>
</g>
<g>
</g>
<g>
</g>
</svg>
