<svg id="Capa_1" enable-background="new 0 0 512 512" height="512" viewBox="0 0 512 512" width="512" xmlns="http://www.w3.org/2000/svg"><g><g><g><g><path d="m192.462 2.373-70.504 43.065c-5.722 3.495-7.527 10.967-4.032 16.689l108.988 178.429c3.495 5.722 10.967 7.527 16.689 4.032l128.191-78.301c5.722-3.495 7.527-10.967 4.032-16.689l-73.753-120.742c-2.238-3.664-5.839-6.288-10.012-7.296l-87.36-21.106c-4.173-1.009-8.575-.319-12.239 1.919z" fill="#f9f6f9"/></g></g><g><g><path d="m292.061 21.559-29.962-7.239c4.172 1.008 7.774 3.633 10.011 7.296l73.752 120.742c3.495 5.722 1.69 13.193-4.032 16.689l-119.95 73.267 5.034 8.241c3.495 5.722 10.967 7.527 16.689 4.032l128.191-78.301c5.722-3.495 7.527-10.967 4.032-16.689l-73.753-120.741c-2.238-3.664-5.839-6.289-10.012-7.297z" fill="#e7ecf6"/></g></g><g><g><path d="m292.061 21.559-87.36-21.106c-3.072-.742-6.266-.556-9.201.482l35.417 57.983c2.33 3.815 7.311 5.018 11.126 2.688l57.983-35.417c-2.136-2.264-4.893-3.888-7.965-4.63z" fill="#e7ecf6"/></g></g><g><g><path d="m292.061 21.559-19.402-4.688-49.104 29.993 7.363 12.054c2.33 3.814 7.311 5.018 11.126 2.688l57.983-35.417c-2.137-2.264-4.894-3.888-7.966-4.63z" fill="#d8e2f1"/></g></g></g><g><path d="m393.949 156.576h-26.043l-18.301 18.301-18.301-18.301h-26.032l-18.311 18.311-18.311-18.311h-26.032l-18.311 18.311-18.311-18.311h-26.032l-18.3 18.3-18.3-18.3h-26.033l-18.048 18.048 2.171 24.386 18.038 18.038-15.089 15.09 25.934 58.408 20.483 20.483-20.477 20.478v21.688l20.472 20.472-25.164 25.164 113.641 40.956 141.641-23.954v-21.689l-20.472-20.472 20.477-20.477-.001-21.688-20.484-20.483 20.479-20.479zm-44.343 39.99 20.483 20.483-20.482 20.483-20.484-20.484zm-114.453 114.452 20.483-20.483 20.485 20.485-20.482 20.483zm9.641 31.331-20.482 20.483-20.486-20.487 20.482-20.482zm42.169-20.486 20.484 20.484-20.482 20.483-20.485-20.485zm-20.483-42.172 20.475-20.475 20.485 20.484-20.475 20.476zm-10.845-10.844-20.472-20.472 20.474-20.474 20.472 20.472zm-10.844 10.844-20.483 20.483-20.472-20.472 20.483-20.483zm-51.799-10.833-20.483-20.483 20.483-20.483 20.483 20.483zm20.472 42.16-20.482 20.483-20.472-20.472 20.482-20.482zm-20.482 42.171 20.487 20.487-20.477 20.478-20.487-20.487zm31.327 31.327 20.486 20.486-20.477 20.478-20.486-20.486zm10.844-10.844 20.482-20.482 20.485 20.485-20.482 20.483zm51.809 10.844 20.485 20.485-20.482 20.483-20.486-20.486zm10.844-10.844 20.483-20.483 20.484 20.484-20.482 20.484zm.001-62.654 20.475-20.475 20.484 20.483-20.476 20.477zm-.009-62.645 20.481-20.481 20.484 20.484-20.48 20.481zm20.491-83.124 20.472 20.472-20.482 20.482-20.472-20.472zm-31.326 31.326 20.472 20.472-20.481 20.481-20.472-20.472zm-31.327-31.326 20.482 20.482-20.482 20.482-20.483-20.482zm-31.326 31.326 20.483 20.482-20.474 20.474-20.483-20.483zm-31.328-31.326 20.483 20.482-20.473 20.473-20.482-20.482zm-31.317 31.317 20.482 20.482-20.483 20.483-20.482-20.482zm-51.799-10.834 20.482-20.483 20.472 20.472-20.483 20.483zm20.472 83.125-18.395-18.395c-.81-.81-1.759-1.394-2.768-1.766.548-.323 1.069-.71 1.54-1.181l19.623-19.623 20.482 20.482zm10.844 10.845 20.482-20.482 20.483 20.483-20.482 20.482zm.006 62.648 20.478-20.477 20.472 20.472-20.477 20.477zm-.006 62.639 20.478-20.478 20.487 20.487-20.477 20.478zm228.907 0-20.483 20.483-20.472-20.472 20.483-20.483zm.005-62.637-20.476 20.477-20.484-20.484 20.476-20.476zm-20.484-42.17-20.484-20.483 20.48-20.48 20.483 20.483zm49.716-49.718-18.393 18.394-20.483-20.483 20.482-20.482c.001 0 19.205 21.76 18.394 22.571zm-18.393-44.26-20.483-20.483 20.477-20.478 20.483 20.483z" fill="#2b4d66"/></g><g><path d="m391.907 420.391 22.922-257.504h-33.104l-22.921 257.504z" fill="#407093"/></g><g><path d="m152.469 420.391-22.921-257.504h-33.103l22.921 257.504z" fill="#407093"/></g><g><path d="m129.548 162.887h-21.28l22.921 257.504h21.28z" fill="#365e7d"/></g><g><path d="m390.822 162.887-22.921 257.504h24.006l22.922-257.504z" fill="#365e7d"/></g><g><path d="m438.709 167.36h-365.418c-4.418 0-8-3.582-8-8v-34.39c0-4.418 3.582-8 8-8h365.418c4.418 0 8 3.582 8 8v34.39c0 4.419-3.582 8-8 8z" fill="#365e7d"/></g><path d="m438.709 116.97h-13.533v20.857c0 4.418-3.582 8-8 8h-351.885v13.533c0 4.418 3.582 8 8 8h365.418c4.418 0 8-3.582 8-8v-34.39c0-4.418-3.582-8-8-8z" fill="#2b4d66"/><g><path d="m117.934 404.305 6.732 75.625c1.616 18.154 16.826 32.07 35.052 32.07h191.838c18.226 0 33.436-13.916 35.052-32.07l6.732-75.625z" fill="#365e7d"/></g><g><path d="m369.333 404.305-4.769 53.58c-1.616 18.154-16.826 32.071-35.052 32.071h-191.839c-3.941 0-7.74-.653-11.293-1.857 4.733 13.997 17.962 23.901 33.338 23.901h191.838c18.226 0 33.436-13.916 35.052-32.07l6.732-75.625z" fill="#2b4d66"/></g></g></svg>