<?xml version="1.0" encoding="iso-8859-1"?>
<!-- Generator: Adobe Illustrator 19.0.0, SVG Export Plug-In . SVG Version: 6.00 Build 0)  -->
<svg version="1.1" id="Capa_1" xmlns="http://www.w3.org/2000/svg" xmlns:xlink="http://www.w3.org/1999/xlink" x="0px" y="0px"
	 viewBox="0 0 512.005 512.005" style="enable-background:new 0 0 512.005 512.005;" xml:space="preserve">
<path style="fill:#CFD8DC;" d="M437.345,0.005H202.679c-5.891,0-10.667,4.776-10.667,10.667v117.333H74.679
	c-5.891,0-10.667,4.776-10.667,10.667v362.667c0,5.891,4.776,10.667,10.667,10.667h362.667c5.891,0,10.667-4.776,10.667-10.667
	V10.671C448.012,4.78,443.236,0.005,437.345,0.005z"/>
<path style="fill:#B0BEC5;" d="M206.753,0.815c-3.985-1.654-8.574-0.745-11.627,2.304l-128,128
	c-4.171,4.16-4.179,10.914-0.019,15.085c2.006,2.011,4.731,3.139,7.571,3.134h128c5.891,0,10.667-4.776,10.667-10.667v-128
	C213.345,6.355,210.742,2.464,206.753,0.815z"/>
<path style="fill:#F44336;" d="M336.588,279.13l-128-85.333c-4.904-3.264-11.526-1.934-14.79,2.971
	c-1.164,1.749-1.785,3.803-1.786,5.904v170.667c0.006,3.927,2.17,7.533,5.632,9.387c1.545,0.841,3.276,1.281,5.035,1.28
	c2.103-0.002,4.159-0.625,5.909-1.792l128-85.333c4.901-3.268,6.225-9.891,2.957-14.792
	C338.764,280.916,337.759,279.911,336.588,279.13L336.588,279.13z"/>
<g>
</g>
<g>
</g>
<g>
</g>
<g>
</g>
<g>
</g>
<g>
</g>
<g>
</g>
<g>
</g>
<g>
</g>
<g>
</g>
<g>
</g>
<g>
</g>
<g>
</g>
<g>
</g>
<g>
</g>
</svg>
